# MagicaVoxel @ Ephtracy

# group
o 

# material
mtllib Monster.mtl
usemtl palette

# normals
vn -1 0 0
vn 1 0 0
vn 0 0 1
vn 0 0 -1
vn 0 -1 0
vn 0 1 0

# texcoords
vt 0.876953 0.5
vt 0.880859 0.5
vt 0.884766 0.5
vt 0.986328 0.5

# verts
v -0.5 0 0.4
v -0.5 0 -0.5
v -0.5 0.1 0.3
v -0.5 0.1 -0.4
v -0.5 0.3 0.3
v -0.5 0.3 -0.4
v -0.5 0.4 0.4
v -0.5 0.4 -0.5
v -0.4 0.1 0.3
v -0.4 0.1 -0.4
v -0.4 0.3 0.3
v -0.4 0.3 -0.4
v -0.4 0.4 0.4
v -0.4 0.4 -0.3
v -0.4 0.5 0
v -0.4 0.5 -0.3
v -0.4 0.6 0.4
v -0.4 0.6 0
v -0.3 0.4 -0.3
v -0.3 0.4 -0.5
v -0.3 0.5 0
v -0.3 0.5 -0.2
v -0.3 0.5 -0.3
v -0.3 0.5 -0.5
v -0.3 0.6 0.2
v -0.3 0.6 0.1
v -0.3 0.6 0
v -0.3 0.6 -0.2
v -0.3 0.8 0.2
v -0.3 0.8 0.1
v -0.2 0.5 -0.2
v -0.2 0.5 -0.5
v -0.2 0.6 0.3
v -0.2 0.6 0.2
v -0.2 0.6 0.1
v -0.2 0.6 -0.2
v -0.2 0.6 -0.4
v -0.2 0.6 -0.5
v -0.2 0.7 0
v -0.2 0.7 -0.3
v -0.2 0.8 0.3
v -0.2 0.8 0.2
v -0.2 0.8 0.1
v -0.2 0.8 -0.3
v -0.2 0.8 -0.4
v -0.2 0.9 0.1
v -0.2 0.9 0
v -0.2 0.9 -0.2
v -0.2 1 0
v -0.2 1 -0.2
v -0.1 0.7 0
v -0.1 0.7 -0.3
v -0.1 0.8 -0.3
v -0.1 0.9 0
v -0.1 0.9 -0.2
v -0.1 0.9 -0.3
v 0.2 0.8 0.1
v 0.2 0.8 0
v 0.2 0.8 -0.3
v 0.2 0.9 0.1
v 0.2 0.9 0
v 0.2 0.9 -0.2
v 0.2 0.9 -0.3
v 0.2 1 0
v 0.2 1 -0.2
v 0.3 0.4 0.3
v 0.3 0.4 -0.4
v 0.3 0.5 0.1
v 0.3 0.5 -0.3
v 0.3 0.6 0.3
v 0.3 0.6 0.2
v 0.3 0.6 0.1
v 0.3 0.6 -0.4
v 0.3 0.8 0.3
v 0.3 0.8 0.2
v 0.3 0.8 -0.3
v 0.3 0.8 -0.4
v 0.4 0.1 0.3
v 0.4 0.1 -0.4
v 0.4 0.3 0.3
v 0.4 0.3 -0.4
v 0.4 0.4 0.4
v 0.4 0.4 0.3
v 0.4 0.4 -0.4
v 0.4 0.4 -0.5
v 0.4 0.6 0.4
v 0.4 0.6 0.3
v 0.4 0.6 -0.4
v 0.4 0.6 -0.5
v 0.5 0 0.4
v 0.5 0 -0.5
v 0.5 0.1 0.3
v 0.5 0.1 -0.4
v 0.5 0.3 0.3
v 0.5 0.3 -0.4
v 0.5 0.4 0.4
v 0.5 0.4 -0.5
v -0.5 0 0.4
v -0.5 0.4 0.4
v -0.4 0 0.4
v -0.4 0.4 0.4
v -0.4 0.6 0.4
v -0.3 0.2 0.4
v -0.3 0.4 0.4
v -0.3 0.5 0.4
v -0.2 0.5 0.4
v -0.2 0.6 0.4
v 0.3 0.2 0.4
v 0.3 0.4 0.4
v 0.4 0 0.4
v 0.4 0.4 0.4
v 0.4 0.6 0.4
v 0.5 0 0.4
v 0.5 0.4 0.4
v -0.2 0.6 0.3
v -0.2 0.8 0.3
v 0.3 0.6 0.3
v 0.3 0.8 0.3
v -0.3 0.6 0.2
v -0.3 0.8 0.2
v -0.2 0.6 0.2
v -0.2 0.8 0.2
v -0.2 0.8 0.1
v -0.2 0.9 0.1
v 0.1 0.8 0.1
v 0.2 0.8 0.1
v 0.2 0.9 0.1
v -0.2 0.9 0
v -0.2 1 0
v 0.2 0.9 0
v 0.2 1 0
v -0.2 0.7 -0.3
v -0.2 0.8 -0.3
v -0.1 0.7 -0.3
v -0.1 0.8 -0.3
v -0.5 0.1 -0.4
v -0.5 0.3 -0.4
v -0.4 0.1 -0.4
v -0.4 0.3 -0.4
v 0.3 0.4 -0.4
v 0.3 0.6 -0.4
v 0.4 0.1 -0.4
v 0.4 0.3 -0.4
v 0.4 0.4 -0.4
v 0.4 0.6 -0.4
v 0.5 0.1 -0.4
v 0.5 0.3 -0.4
v -0.5 0.1 0.3
v -0.5 0.3 0.3
v -0.4 0.1 0.3
v -0.4 0.3 0.3
v 0.3 0.4 0.3
v 0.3 0.6 0.3
v 0.4 0.1 0.3
v 0.4 0.3 0.3
v 0.4 0.4 0.3
v 0.4 0.6 0.3
v 0.5 0.1 0.3
v 0.5 0.3 0.3
v -0.3 0.6 0.1
v -0.3 0.8 0.1
v -0.2 0.6 0.1
v -0.2 0.8 0.1
v -0.4 0.5 0
v -0.4 0.6 0
v -0.3 0.5 0
v -0.3 0.6 0
v -0.2 0.7 0
v -0.2 0.9 0
v -0.1 0.7 0
v -0.1 0.9 0
v -0.3 0.5 -0.2
v -0.3 0.6 -0.2
v -0.2 0.5 -0.2
v -0.2 0.6 -0.2
v -0.2 0.9 -0.2
v -0.2 1 -0.2
v -0.1 0.9 -0.2
v 0.1 0.9 -0.2
v 0.2 0.9 -0.2
v 0.2 1 -0.2
v -0.4 0.4 -0.3
v -0.4 0.5 -0.3
v -0.3 0.4 -0.3
v -0.3 0.5 -0.3
v -0.1 0.8 -0.3
v -0.1 0.9 -0.3
v 0.1 0.8 -0.3
v 0.1 0.9 -0.3
v 0.2 0.8 -0.3
v 0.2 0.9 -0.3
v -0.2 0.6 -0.4
v -0.2 0.8 -0.4
v 0.3 0.6 -0.4
v 0.3 0.8 -0.4
v -0.5 0 -0.5
v -0.5 0.4 -0.5
v -0.4 0 -0.5
v -0.4 0.4 -0.5
v -0.3 0.4 -0.5
v -0.3 0.5 -0.5
v -0.2 0.5 -0.5
v -0.2 0.6 -0.5
v 0.4 0 -0.5
v 0.4 0.4 -0.5
v 0.4 0.6 -0.5
v 0.5 0 -0.5
v 0.5 0.4 -0.5
v -0.5 0 0.4
v -0.4 0 0.4
v 0.4 0 0.4
v 0.5 0 0.4
v -0.5 0 -0.5
v -0.4 0 -0.5
v 0.4 0 -0.5
v 0.5 0 -0.5
v -0.5 0.3 0.3
v -0.4 0.3 0.3
v 0.4 0.3 0.3
v 0.5 0.3 0.3
v -0.5 0.3 -0.4
v -0.4 0.3 -0.4
v 0.4 0.3 -0.4
v 0.5 0.3 -0.4
v -0.2 0.9 0
v -0.1 0.9 0
v -0.2 0.9 -0.2
v -0.1 0.9 -0.2
v -0.5 0.1 0.3
v -0.4 0.1 0.3
v 0.4 0.1 0.3
v 0.5 0.1 0.3
v -0.5 0.1 -0.4
v -0.4 0.1 -0.4
v 0.4 0.1 -0.4
v 0.5 0.1 -0.4
v -0.5 0.4 0.4
v -0.4 0.4 0.4
v 0.4 0.4 0.4
v 0.5 0.4 0.4
v 0.3 0.4 0.3
v 0.4 0.4 0.3
v -0.4 0.4 -0.3
v -0.3 0.4 -0.3
v 0.3 0.4 -0.4
v 0.4 0.4 -0.4
v -0.5 0.4 -0.5
v -0.4 0.4 -0.5
v -0.3 0.4 -0.5
v 0.4 0.4 -0.5
v 0.5 0.4 -0.5
v -0.4 0.5 0
v -0.3 0.5 0
v -0.3 0.5 -0.2
v -0.2 0.5 -0.2
v -0.4 0.5 -0.3
v -0.3 0.5 -0.3
v -0.3 0.5 -0.5
v -0.2 0.5 -0.5
v -0.4 0.6 0.4
v -0.2 0.6 0.4
v 0.4 0.6 0.4
v -0.3 0.6 0.3
v -0.2 0.6 0.3
v 0.3 0.6 0.3
v 0.4 0.6 0.3
v -0.3 0.6 0.2
v -0.2 0.6 0.2
v -0.3 0.6 0.1
v -0.2 0.6 0.1
v -0.4 0.6 0
v -0.3 0.6 0
v -0.3 0.6 -0.2
v -0.2 0.6 -0.2
v -0.2 0.6 -0.4
v 0.3 0.6 -0.4
v 0.4 0.6 -0.4
v -0.2 0.6 -0.5
v 0.4 0.6 -0.5
v -0.2 0.7 0
v -0.1 0.7 0
v -0.2 0.7 -0.3
v -0.1 0.7 -0.3
v -0.2 0.8 0.3
v 0.3 0.8 0.3
v -0.3 0.8 0.2
v -0.2 0.8 0.2
v 0.1 0.8 0.2
v 0.3 0.8 0.2
v -0.3 0.8 0.1
v -0.2 0.8 0.1
v 0.1 0.8 0.1
v 0.2 0.8 0.1
v 0.2 0.8 0
v -0.2 0.8 -0.3
v -0.1 0.8 -0.3
v 0.1 0.8 -0.3
v 0.2 0.8 -0.3
v 0.3 0.8 -0.3
v -0.2 0.8 -0.4
v 0.3 0.8 -0.4
v -0.2 0.9 0.1
v 0.2 0.9 0.1
v -0.2 0.9 0
v 0.2 0.9 0
v -0.1 0.9 -0.2
v 0.1 0.9 -0.2
v 0.2 0.9 -0.2
v -0.1 0.9 -0.3
v 0.1 0.9 -0.3
v 0.2 0.9 -0.3
v -0.2 1 0
v 0.2 1 0
v -0.2 1 -0.2
v 0.2 1 -0.2

# faces
f 3/4/1 2/4/1 1/4/1
f 4/4/1 2/4/1 3/4/1
f 5/4/1 3/4/1 1/4/1
f 6/4/1 2/4/1 4/4/1
f 7/4/1 5/4/1 1/4/1
f 7/4/1 6/4/1 5/4/1
f 8/4/1 2/4/1 6/4/1
f 8/4/1 6/4/1 7/4/1
f 11/3/1 10/3/1 9/3/1
f 12/3/1 10/3/1 11/3/1
f 15/2/1 14/2/1 13/2/1
f 16/2/1 14/2/1 15/2/1
f 17/2/1 15/2/1 13/2/1
f 18/2/1 15/2/1 17/2/1
f 23/3/1 20/3/1 19/3/1
f 24/3/1 20/3/1 23/3/1
f 27/3/1 22/3/1 21/3/1
f 28/3/1 22/3/1 27/3/1
f 29/3/1 26/3/1 25/3/1
f 30/3/1 26/3/1 29/3/1
f 36/3/1 32/3/1 31/3/1
f 37/3/1 32/3/1 36/3/1
f 38/3/1 32/3/1 37/3/1
f 39/3/1 36/3/1 35/3/1
f 39/3/1 37/3/1 36/3/1
f 40/3/1 37/3/1 39/3/1
f 41/3/1 34/3/1 33/3/1
f 42/3/1 34/3/1 41/3/1
f 43/3/1 39/3/1 35/3/1
f 44/3/1 37/3/1 40/3/1
f 45/3/1 37/3/1 44/3/1
f 46/3/1 39/3/1 43/3/1
f 47/3/1 39/3/1 46/3/1
f 49/3/1 48/3/1 47/3/1
f 50/3/1 48/3/1 49/3/1
f 53/3/1 52/3/1 51/3/1
f 54/3/1 53/3/1 51/3/1
f 55/3/1 53/3/1 54/3/1
f 56/3/1 53/3/1 55/3/1
f 57/3/2 58/3/2 60/3/2
f 58/2/2 59/2/2 61/2/2
f 60/3/2 58/3/2 61/3/2
f 61/2/2 59/2/2 62/2/2
f 62/2/2 59/2/2 63/2/2
f 61/3/2 62/3/2 64/3/2
f 64/3/2 62/3/2 65/3/2
f 66/3/2 67/3/2 68/3/2
f 68/3/2 67/3/2 69/3/2
f 66/3/2 68/3/2 70/3/2
f 70/3/2 68/3/2 71/3/2
f 68/2/2 69/2/2 72/2/2
f 71/3/2 68/3/2 72/3/2
f 69/3/2 67/3/2 73/3/2
f 70/3/2 71/3/2 74/3/2
f 71/2/2 72/2/2 75/2/2
f 74/3/2 71/3/2 75/3/2
f 72/2/2 69/2/2 76/2/2
f 75/2/2 72/2/2 76/2/2
f 69/3/2 73/3/2 76/3/2
f 76/3/2 73/3/2 77/3/2
f 78/3/2 79/3/2 80/3/2
f 80/3/2 79/3/2 81/3/2
f 82/3/2 83/3/2 86/3/2
f 86/3/2 83/3/2 87/3/2
f 84/3/2 85/3/2 88/3/2
f 88/3/2 85/3/2 89/3/2
f 90/4/2 91/4/2 92/4/2
f 92/4/2 91/4/2 93/4/2
f 90/4/2 92/4/2 94/4/2
f 93/4/2 91/4/2 95/4/2
f 90/4/2 94/4/2 96/4/2
f 94/4/2 95/4/2 96/4/2
f 95/4/2 91/4/2 97/4/2
f 96/4/2 95/4/2 97/4/2
f 100/4/3 99/4/3 98/4/3
f 101/4/3 99/4/3 100/4/3
f 103/3/3 101/3/3 100/3/3
f 104/2/3 102/2/3 101/2/3
f 104/3/3 101/3/3 103/3/3
f 105/2/3 102/2/3 104/2/3
f 106/3/3 105/3/3 104/3/3
f 106/2/3 102/2/3 105/2/3
f 107/2/3 102/2/3 106/2/3
f 108/3/3 103/3/3 100/3/3
f 108/1/3 104/1/3 103/1/3
f 109/3/3 107/3/3 106/3/3
f 109/1/3 104/1/3 108/1/3
f 109/3/3 106/3/3 104/3/3
f 110/3/3 108/3/3 100/3/3
f 110/3/3 109/3/3 108/3/3
f 111/3/3 107/3/3 109/3/3
f 111/3/3 109/3/3 110/3/3
f 112/3/3 107/3/3 111/3/3
f 113/4/3 111/4/3 110/4/3
f 114/4/3 111/4/3 113/4/3
f 117/3/3 116/3/3 115/3/3
f 118/3/3 116/3/3 117/3/3
f 121/3/3 120/3/3 119/3/3
f 122/3/3 120/3/3 121/3/3
f 125/3/3 124/3/3 123/3/3
f 126/3/3 124/3/3 125/3/3
f 127/3/3 124/3/3 126/3/3
f 130/3/3 129/3/3 128/3/3
f 131/3/3 129/3/3 130/3/3
f 134/3/3 133/3/3 132/3/3
f 135/3/3 133/3/3 134/3/3
f 138/4/3 137/4/3 136/4/3
f 139/4/3 137/4/3 138/4/3
f 144/3/3 141/3/3 140/3/3
f 145/3/3 141/3/3 144/3/3
f 146/4/3 143/4/3 142/4/3
f 147/4/3 143/4/3 146/4/3
f 148/4/4 149/4/4 150/4/4
f 150/4/4 149/4/4 151/4/4
f 152/3/4 153/3/4 156/3/4
f 156/3/4 153/3/4 157/3/4
f 154/4/4 155/4/4 158/4/4
f 158/4/4 155/4/4 159/4/4
f 160/3/4 161/3/4 162/3/4
f 162/3/4 161/3/4 163/3/4
f 164/2/4 165/2/4 166/2/4
f 166/2/4 165/2/4 167/2/4
f 168/3/4 169/3/4 170/3/4
f 170/3/4 169/3/4 171/3/4
f 172/3/4 173/3/4 174/3/4
f 174/3/4 173/3/4 175/3/4
f 176/3/4 177/3/4 178/3/4
f 178/3/4 177/3/4 179/3/4
f 179/3/4 177/3/4 180/3/4
f 180/3/4 177/3/4 181/3/4
f 182/2/4 183/2/4 184/2/4
f 184/2/4 183/2/4 185/2/4
f 186/3/4 187/3/4 188/3/4
f 188/3/4 187/3/4 189/3/4
f 188/2/4 189/2/4 190/2/4
f 190/2/4 189/2/4 191/2/4
f 192/3/4 193/3/4 194/3/4
f 194/3/4 193/3/4 195/3/4
f 196/4/4 197/4/4 198/4/4
f 198/4/4 197/4/4 199/4/4
f 198/3/4 199/3/4 200/3/4
f 200/3/4 201/3/4 202/3/4
f 198/3/4 200/3/4 204/3/4
f 202/3/4 203/3/4 204/3/4
f 200/3/4 202/3/4 204/3/4
f 204/3/4 203/3/4 205/3/4
f 205/3/4 203/3/4 206/3/4
f 204/4/4 205/4/4 207/4/4
f 207/4/4 205/4/4 208/4/4
f 213/4/5 210/4/5 209/4/5
f 214/3/5 211/3/5 210/3/5
f 214/4/5 210/4/5 213/4/5
f 215/4/5 212/4/5 211/4/5
f 215/3/5 211/3/5 214/3/5
f 216/4/5 212/4/5 215/4/5
f 221/4/5 218/4/5 217/4/5
f 222/4/5 218/4/5 221/4/5
f 223/4/5 220/4/5 219/4/5
f 224/4/5 220/4/5 223/4/5
f 227/3/5 226/3/5 225/3/5
f 228/3/5 226/3/5 227/3/5
f 229/4/6 230/4/6 233/4/6
f 233/4/6 230/4/6 234/4/6
f 231/4/6 232/4/6 235/4/6
f 235/4/6 232/4/6 236/4/6
f 239/4/6 240/4/6 242/4/6
f 237/4/6 238/4/6 243/4/6
f 241/3/6 242/3/6 245/3/6
f 242/4/6 240/4/6 246/4/6
f 245/3/6 242/3/6 246/3/6
f 237/4/6 243/4/6 247/4/6
f 243/3/6 244/3/6 248/3/6
f 247/4/6 243/4/6 248/4/6
f 248/3/6 244/3/6 249/3/6
f 246/4/6 240/4/6 250/4/6
f 250/4/6 240/4/6 251/4/6
f 252/2/6 253/2/6 254/2/6
f 252/2/6 254/2/6 256/2/6
f 254/3/6 255/3/6 257/3/6
f 256/2/6 254/2/6 257/2/6
f 257/3/6 255/3/6 258/3/6
f 258/3/6 255/3/6 259/3/6
f 260/2/6 261/2/6 263/2/6
f 261/3/6 262/3/6 264/3/6
f 263/2/6 261/2/6 264/2/6
f 264/3/6 262/3/6 265/3/6
f 265/3/6 262/3/6 266/3/6
f 260/2/6 263/2/6 267/2/6
f 263/3/6 264/3/6 267/3/6
f 267/3/6 264/3/6 268/3/6
f 260/2/6 267/2/6 269/2/6
f 260/2/6 269/2/6 271/2/6
f 269/3/6 270/3/6 272/3/6
f 271/2/6 269/2/6 272/2/6
f 272/3/6 270/3/6 273/3/6
f 273/3/6 270/3/6 274/3/6
f 275/3/6 276/3/6 278/3/6
f 276/3/6 277/3/6 278/3/6
f 278/3/6 277/3/6 279/3/6
f 280/3/6 281/3/6 282/3/6
f 282/3/6 281/3/6 283/3/6
f 284/3/6 285/3/6 287/3/6
f 287/3/6 285/3/6 288/3/6
f 288/3/6 285/3/6 289/3/6
f 286/3/6 287/3/6 290/3/6
f 287/3/6 288/3/6 290/3/6
f 290/3/6 288/3/6 291/3/6
f 288/2/6 289/2/6 292/2/6
f 291/3/6 288/3/6 292/3/6
f 292/2/6 289/2/6 293/2/6
f 293/2/6 289/2/6 294/2/6
f 294/2/6 289/2/6 298/2/6
f 298/2/6 289/2/6 299/2/6
f 296/3/6 297/3/6 300/3/6
f 295/3/6 296/3/6 300/3/6
f 298/3/6 299/3/6 300/3/6
f 297/3/6 298/3/6 300/3/6
f 300/3/6 299/3/6 301/3/6
f 302/3/6 303/3/6 304/3/6
f 304/3/6 303/3/6 305/3/6
f 306/3/6 307/3/6 309/3/6
f 307/2/6 308/2/6 310/2/6
f 309/3/6 307/3/6 310/3/6
f 310/2/6 308/2/6 311/2/6
f 312/3/6 313/3/6 314/3/6
f 314/3/6 313/3/6 315/3/6
