# MagicaVoxel @ Ephtracy

# group
o 

# material
mtllib Flag.mtl
usemtl palette

# normals
vn -1 0 0
vn 1 0 0
vn 0 0 1
vn 0 0 -1
vn 0 -1 0
vn 0 1 0

# texcoords
vt 0.841797 0.5
vt 0.966797 0.5
vt 0.994141 0.5

# verts
v -0.1 0 0.1
v -0.1 0 -1.49012e-08
v -0.1 1 0.1
v -0.1 1 -1.49012e-08
v 0.1 0 0.1
v 0.1 0 -1.49012e-08
v 0.1 0.1 0.1
v 0.1 0.1 -1.49012e-08
v 0.1 0.2 0.1
v 0.1 0.2 -1.49012e-08
v 0.1 0.3 0.1
v 0.1 0.3 -1.49012e-08
v 0.1 0.4 0.1
v 0.1 0.4 -1.49012e-08
v 0.1 0.5 0.1
v 0.1 0.5 -1.49012e-08
v 0.2 0.5 0.1
v 0.2 0.5 -1.49012e-08
v 0.2 0.6 0.1
v 0.2 0.6 -1.49012e-08
v 0.3 0.6 0.1
v 0.3 0.6 -1.49012e-08
v 0.3 0.7 0.1
v 0.3 0.7 -1.49012e-08
v 0.4 0.7 0.1
v 0.4 0.7 -1.49012e-08
v 0.4 0.8 0.1
v 0.4 0.8 -1.49012e-08
v 0.5 0.8 0.1
v 0.5 0.8 -1.49012e-08
v 0.5 1 0.1
v 0.5 1 -1.49012e-08
v -0.1 0 0.1
v -0.1 1 0.1
v 1.49012e-08 0 0.1
v 1.49012e-08 0.1 0.1
v 1.49012e-08 0.2 0.1
v 1.49012e-08 0.3 0.1
v 1.49012e-08 0.4 0.1
v 1.49012e-08 0.5 0.1
v 1.49012e-08 0.6 0.1
v 1.49012e-08 0.7 0.1
v 1.49012e-08 0.8 0.1
v 1.49012e-08 0.9 0.1
v 0.1 0 0.1
v 0.1 0.1 0.1
v 0.1 0.2 0.1
v 0.1 0.3 0.1
v 0.1 0.4 0.1
v 0.1 0.5 0.1
v 0.1 0.6 0.1
v 0.1 0.7 0.1
v 0.1 0.8 0.1
v 0.1 0.9 0.1
v 0.1 1 0.1
v 0.2 0.5 0.1
v 0.2 0.6 0.1
v 0.3 0.6 0.1
v 0.3 0.7 0.1
v 0.4 0.7 0.1
v 0.4 0.8 0.1
v 0.5 0.8 0.1
v 0.5 1 0.1
v -0.1 0 -1.49012e-08
v -0.1 1 -1.49012e-08
v 1.49012e-08 0 -1.49012e-08
v 1.49012e-08 0.1 -1.49012e-08
v 1.49012e-08 0.2 -1.49012e-08
v 1.49012e-08 0.3 -1.49012e-08
v 1.49012e-08 0.4 -1.49012e-08
v 1.49012e-08 0.5 -1.49012e-08
v 1.49012e-08 0.6 -1.49012e-08
v 1.49012e-08 0.7 -1.49012e-08
v 1.49012e-08 0.8 -1.49012e-08
v 1.49012e-08 0.9 -1.49012e-08
v 0.1 0 -1.49012e-08
v 0.1 0.1 -1.49012e-08
v 0.1 0.2 -1.49012e-08
v 0.1 0.3 -1.49012e-08
v 0.1 0.4 -1.49012e-08
v 0.1 0.5 -1.49012e-08
v 0.1 0.6 -1.49012e-08
v 0.1 0.7 -1.49012e-08
v 0.1 0.8 -1.49012e-08
v 0.1 0.9 -1.49012e-08
v 0.1 1 -1.49012e-08
v 0.2 0.5 -1.49012e-08
v 0.2 0.6 -1.49012e-08
v 0.3 0.6 -1.49012e-08
v 0.3 0.7 -1.49012e-08
v 0.4 0.7 -1.49012e-08
v 0.4 0.8 -1.49012e-08
v 0.5 0.8 -1.49012e-08
v 0.5 1 -1.49012e-08
v -0.1 0 0.1
v 1.49012e-08 0 0.1
v 0.1 0 0.1
v -0.1 0 -1.49012e-08
v 1.49012e-08 0 -1.49012e-08
v 0.1 0 -1.49012e-08
v 0.1 0.5 0.1
v 0.2 0.5 0.1
v 0.1 0.5 -1.49012e-08
v 0.2 0.5 -1.49012e-08
v 0.2 0.6 0.1
v 0.3 0.6 0.1
v 0.2 0.6 -1.49012e-08
v 0.3 0.6 -1.49012e-08
v 0.3 0.7 0.1
v 0.4 0.7 0.1
v 0.3 0.7 -1.49012e-08
v 0.4 0.7 -1.49012e-08
v 0.4 0.8 0.1
v 0.5 0.8 0.1
v 0.4 0.8 -1.49012e-08
v 0.5 0.8 -1.49012e-08
v -0.1 1 0.1
v 0.1 1 0.1
v 0.5 1 0.1
v -0.1 1 -1.49012e-08
v 0.1 1 -1.49012e-08
v 0.5 1 -1.49012e-08

# faces
f 3/3/1 2/3/1 1/3/1
f 4/3/1 2/3/1 3/3/1
f 5/2/2 6/2/2 7/2/2
f 7/2/2 6/2/2 8/2/2
f 7/3/2 8/3/2 9/3/2
f 9/3/2 8/3/2 10/3/2
f 9/2/2 10/2/2 11/2/2
f 11/2/2 10/2/2 12/2/2
f 11/3/2 12/3/2 13/3/2
f 13/3/2 12/3/2 14/3/2
f 13/2/2 14/2/2 15/2/2
f 15/2/2 14/2/2 16/2/2
f 17/1/2 18/1/2 19/1/2
f 19/1/2 18/1/2 20/1/2
f 21/1/2 22/1/2 23/1/2
f 23/1/2 22/1/2 24/1/2
f 25/1/2 26/1/2 27/1/2
f 27/1/2 26/1/2 28/1/2
f 29/1/2 30/1/2 31/1/2
f 31/1/2 30/1/2 32/1/2
f 35/3/3 34/3/3 33/3/3
f 36/3/3 34/3/3 35/3/3
f 37/3/3 34/3/3 36/3/3
f 38/3/3 34/3/3 37/3/3
f 39/3/3 34/3/3 38/3/3
f 40/3/3 34/3/3 39/3/3
f 41/3/3 34/3/3 40/3/3
f 42/3/3 34/3/3 41/3/3
f 43/3/3 34/3/3 42/3/3
f 44/3/3 34/3/3 43/3/3
f 45/2/3 36/2/3 35/2/3
f 46/3/3 37/3/3 36/3/3
f 46/2/3 36/2/3 45/2/3
f 47/2/3 38/2/3 37/2/3
f 47/3/3 37/3/3 46/3/3
f 48/3/3 39/3/3 38/3/3
f 48/2/3 38/2/3 47/2/3
f 49/2/3 40/2/3 39/2/3
f 49/3/3 39/3/3 48/3/3
f 50/3/3 41/3/3 40/3/3
f 50/2/3 40/2/3 49/2/3
f 51/2/3 42/2/3 41/2/3
f 51/3/3 41/3/3 50/3/3
f 52/3/3 43/3/3 42/3/3
f 52/2/3 42/2/3 51/2/3
f 53/2/3 44/2/3 43/2/3
f 53/3/3 43/3/3 52/3/3
f 54/3/3 34/3/3 44/3/3
f 54/2/3 44/2/3 53/2/3
f 55/3/3 34/3/3 54/3/3
f 56/1/3 53/1/3 52/1/3
f 56/1/3 55/1/3 54/1/3
f 56/1/3 54/1/3 53/1/3
f 56/1/3 52/1/3 51/1/3
f 56/1/3 51/1/3 50/1/3
f 57/1/3 55/1/3 56/1/3
f 58/1/3 55/1/3 57/1/3
f 59/1/3 55/1/3 58/1/3
f 60/1/3 55/1/3 59/1/3
f 61/1/3 55/1/3 60/1/3
f 62/1/3 55/1/3 61/1/3
f 63/1/3 55/1/3 62/1/3
f 64/3/4 65/3/4 66/3/4
f 66/3/4 65/3/4 67/3/4
f 67/3/4 65/3/4 68/3/4
f 68/3/4 65/3/4 69/3/4
f 69/3/4 65/3/4 70/3/4
f 70/3/4 65/3/4 71/3/4
f 71/3/4 65/3/4 72/3/4
f 72/3/4 65/3/4 73/3/4
f 73/3/4 65/3/4 74/3/4
f 74/3/4 65/3/4 75/3/4
f 66/2/4 67/2/4 76/2/4
f 67/3/4 68/3/4 77/3/4
f 76/2/4 67/2/4 77/2/4
f 68/2/4 69/2/4 78/2/4
f 77/3/4 68/3/4 78/3/4
f 69/3/4 70/3/4 79/3/4
f 78/2/4 69/2/4 79/2/4
f 70/2/4 71/2/4 80/2/4
f 79/3/4 70/3/4 80/3/4
f 71/3/4 72/3/4 81/3/4
f 80/2/4 71/2/4 81/2/4
f 72/2/4 73/2/4 82/2/4
f 81/3/4 72/3/4 82/3/4
f 73/3/4 74/3/4 83/3/4
f 82/2/4 73/2/4 83/2/4
f 74/2/4 75/2/4 84/2/4
f 83/3/4 74/3/4 84/3/4
f 75/3/4 65/3/4 85/3/4
f 84/2/4 75/2/4 85/2/4
f 85/3/4 65/3/4 86/3/4
f 83/1/4 84/1/4 87/1/4
f 85/1/4 86/1/4 87/1/4
f 84/1/4 85/1/4 87/1/4
f 82/1/4 83/1/4 87/1/4
f 81/1/4 82/1/4 87/1/4
f 87/1/4 86/1/4 88/1/4
f 88/1/4 86/1/4 89/1/4
f 89/1/4 86/1/4 90/1/4
f 90/1/4 86/1/4 91/1/4
f 91/1/4 86/1/4 92/1/4
f 92/1/4 86/1/4 93/1/4
f 93/1/4 86/1/4 94/1/4
f 98/3/5 96/3/5 95/3/5
f 99/2/5 97/2/5 96/2/5
f 99/3/5 96/3/5 98/3/5
f 100/2/5 97/2/5 99/2/5
f 103/1/5 102/1/5 101/1/5
f 104/1/5 102/1/5 103/1/5
f 107/1/5 106/1/5 105/1/5
f 108/1/5 106/1/5 107/1/5
f 111/1/5 110/1/5 109/1/5
f 112/1/5 110/1/5 111/1/5
f 115/1/5 114/1/5 113/1/5
f 116/1/5 114/1/5 115/1/5
f 117/3/6 118/3/6 120/3/6
f 118/1/6 119/1/6 121/1/6
f 120/3/6 118/3/6 121/3/6
f 121/1/6 119/1/6 122/1/6
