# MagicaVoxel @ Ephtracy

# group
o 

# material
mtllib Tnak_Body.mtl
usemtl palette

# normals
vn -1 0 0
vn 1 0 0
vn 0 0 1
vn 0 0 -1
vn 0 -1 0
vn 0 1 0

# texcoords
vt 0.841797 0.5
vt 0.958984 0.5
vt 0.970703 0.5
vt 0.974609 0.5
vt 0.982422 0.5
vt 0.994141 0.5

# verts
v -0.5 0 0.5
v -0.5 0 -0.5
v -0.5 0.2 0.5
v -0.5 0.2 -0.5
v -0.5 0.3 0.5
v -0.5 0.3 -0.2
v -0.5 0.3 -0.4
v -0.5 0.3 -0.5
v -0.5 0.4 -0.2
v -0.5 0.4 -0.4
v -0.2 0.2 0.2
v -0.2 0.2 -0.2
v -0.2 0.3 0.2
v -0.2 0.3 -0.2
v -0.2 0.4 0.2
v -0.2 0.4 -0.2
v -0.2 0.5 0.2
v -0.2 0.5 -0.2
v -0.2 0.6 0.2
v -0.2 0.6 -0.2
v -0.2 0.7 0.2
v -0.2 0.7 -0.2
v -0.2 0.8 0.2
v -0.2 0.8 -0.2
v -0.1 0.5 0.5
v -0.1 0.5 0.2
v -0.1 0.6 0.5
v -0.1 0.6 0.2
v -0.1 0.8 0.1
v -0.1 0.8 -0.1
v -0.1 0.9 0.1
v -0.1 0.9 -0.1
v 0.2 0 0.5
v 0.2 0 0.4
v 0.2 0.2 0.5
v 0.2 0.2 0.4
v 0.3 0.2 0.4
v 0.3 0.2 0.3
v 0.3 0.2 -0.2
v 0.3 0.3 0.4
v 0.3 0.3 -0.2
v 0.4 0.2 0.5
v 0.4 0.2 0.4
v 0.4 0.3 0.5
v 0.4 0.3 0.4
v -0.4 0.2 0.5
v -0.4 0.2 0.4
v -0.4 0.3 0.5
v -0.4 0.3 0.4
v -0.3 0.2 0.4
v -0.3 0.2 0.3
v -0.3 0.2 -0.2
v -0.3 0.3 0.4
v -0.3 0.3 -0.2
v -0.2 0 0.5
v -0.2 0 0.4
v -0.2 0.2 0.5
v -0.2 0.2 0.4
v 0.1 0.5 0.5
v 0.1 0.5 0.2
v 0.1 0.6 0.5
v 0.1 0.6 0.2
v 0.1 0.8 0.1
v 0.1 0.8 -0.1
v 0.1 0.9 0.1
v 0.1 0.9 -0.1
v 0.2 0.2 0.2
v 0.2 0.2 -0.2
v 0.2 0.3 0.2
v 0.2 0.3 -0.2
v 0.2 0.4 0.2
v 0.2 0.4 -0.2
v 0.2 0.5 0.2
v 0.2 0.5 -0.2
v 0.2 0.6 0.2
v 0.2 0.6 -0.2
v 0.2 0.7 0.2
v 0.2 0.7 -0.2
v 0.2 0.8 0.2
v 0.2 0.8 -0.2
v 0.5 0 0.5
v 0.5 0 -0.5
v 0.5 0.2 0.5
v 0.5 0.2 -0.5
v 0.5 0.3 0.5
v 0.5 0.3 -0.2
v 0.5 0.3 -0.4
v 0.5 0.3 -0.5
v 0.5 0.4 -0.2
v 0.5 0.4 -0.4
v -0.5 0 0.5
v -0.5 0.2 0.5
v -0.5 0.3 0.5
v -0.4 0 0.5
v -0.4 0.2 0.5
v -0.4 0.3 0.5
v -0.2 0 0.5
v -0.2 0.2 0.5
v -0.1 0.5 0.5
v -0.1 0.6 0.5
v 0.1 0.5 0.5
v 0.1 0.6 0.5
v 0.2 0 0.5
v 0.2 0.2 0.5
v 0.4 0 0.5
v 0.4 0.2 0.5
v 0.4 0.3 0.5
v 0.5 0 0.5
v 0.5 0.2 0.5
v 0.5 0.3 0.5
v -0.4 0.2 0.4
v -0.4 0.3 0.4
v -0.3 0.2 0.4
v -0.3 0.3 0.4
v -0.2 0 0.4
v -0.2 0.2 0.4
v 0.2 0 0.4
v 0.2 0.2 0.4
v 0.3 0.2 0.4
v 0.3 0.3 0.4
v 0.4 0.2 0.4
v 0.4 0.3 0.4
v -0.2 0.2 0.2
v -0.2 0.3 0.2
v -0.2 0.4 0.2
v -0.2 0.5 0.2
v -0.2 0.6 0.2
v -0.2 0.7 0.2
v -0.2 0.8 0.2
v -0.1 0.5 0.2
v -0.1 0.6 0.2
v 0.1 0.5 0.2
v 0.1 0.6 0.2
v 0.2 0.2 0.2
v 0.2 0.3 0.2
v 0.2 0.4 0.2
v 0.2 0.5 0.2
v 0.2 0.6 0.2
v 0.2 0.7 0.2
v 0.2 0.8 0.2
v -0.1 0.8 0.1
v -0.1 0.9 0.1
v 0.1 0.8 0.1
v 0.1 0.9 0.1
v -0.5 0.3 -0.2
v -0.5 0.4 -0.2
v -0.4 0.3 -0.2
v -0.3 0.2 -0.2
v -0.3 0.3 -0.2
v -0.2 0.2 -0.2
v -0.2 0.3 -0.2
v -0.2 0.4 -0.2
v 0.2 0.2 -0.2
v 0.2 0.3 -0.2
v 0.2 0.4 -0.2
v 0.3 0.2 -0.2
v 0.3 0.3 -0.2
v 0.4 0.3 -0.2
v 0.5 0.3 -0.2
v 0.5 0.4 -0.2
v -0.1 0.8 -0.1
v -0.1 0.9 -0.1
v 0.1 0.8 -0.1
v 0.1 0.9 -0.1
v -0.2 0.4 -0.2
v -0.2 0.5 -0.2
v -0.2 0.6 -0.2
v -0.2 0.7 -0.2
v -0.2 0.8 -0.2
v 0.2 0.4 -0.2
v 0.2 0.5 -0.2
v 0.2 0.6 -0.2
v 0.2 0.7 -0.2
v 0.2 0.8 -0.2
v -0.5 0.3 -0.4
v -0.5 0.4 -0.4
v -0.4 0.3 -0.4
v -0.3 0.3 -0.4
v 0.3 0.3 -0.4
v 0.4 0.3 -0.4
v 0.5 0.3 -0.4
v 0.5 0.4 -0.4
v -0.5 0 -0.5
v -0.5 0.2 -0.5
v -0.5 0.3 -0.5
v -0.4 0 -0.5
v -0.4 0.2 -0.5
v -0.4 0.3 -0.5
v -0.3 0.2 -0.5
v -0.3 0.3 -0.5
v 0.3 0.2 -0.5
v 0.3 0.3 -0.5
v 0.4 0 -0.5
v 0.4 0.2 -0.5
v 0.4 0.3 -0.5
v 0.5 0 -0.5
v 0.5 0.2 -0.5
v 0.5 0.3 -0.5
v -0.5 0 0.5
v -0.4 0 0.5
v -0.2 0 0.5
v 0.2 0 0.5
v 0.4 0 0.5
v 0.5 0 0.5
v -0.4 0 0.4
v -0.2 0 0.4
v 0.2 0 0.4
v 0.4 0 0.4
v -0.4 0 -0.4
v 0.4 0 -0.4
v -0.5 0 -0.5
v -0.4 0 -0.5
v 0.4 0 -0.5
v 0.5 0 -0.5
v -0.1 0.5 0.5
v 0.1 0.5 0.5
v -0.1 0.5 0.2
v 0.1 0.5 0.2
v -0.4 0.2 0.5
v -0.2 0.2 0.5
v 0.2 0.2 0.5
v 0.4 0.2 0.5
v -0.4 0.2 0.4
v -0.3 0.2 0.4
v -0.2 0.2 0.4
v 0.2 0.2 0.4
v 0.3 0.2 0.4
v 0.4 0.2 0.4
v -0.3 0.2 0.3
v 0.3 0.2 0.3
v -0.2 0.2 0.2
v 0.2 0.2 0.2
v -0.3 0.2 -0.2
v -0.2 0.2 -0.2
v 0.2 0.2 -0.2
v 0.3 0.2 -0.2
v -0.5 0.3 0.5
v -0.4 0.3 0.5
v 0.4 0.3 0.5
v 0.5 0.3 0.5
v -0.4 0.3 0.4
v -0.3 0.3 0.4
v 0.3 0.3 0.4
v 0.4 0.3 0.4
v -0.5 0.3 -0.2
v -0.4 0.3 -0.2
v -0.3 0.3 -0.2
v 0.3 0.3 -0.2
v 0.4 0.3 -0.2
v 0.5 0.3 -0.2
v -0.5 0.3 -0.4
v -0.4 0.3 -0.4
v -0.3 0.3 -0.4
v 0.3 0.3 -0.4
v 0.4 0.3 -0.4
v 0.5 0.3 -0.4
v -0.5 0.3 -0.5
v -0.4 0.3 -0.5
v -0.3 0.3 -0.5
v 0.3 0.3 -0.5
v 0.4 0.3 -0.5
v 0.5 0.3 -0.5
v -0.5 0.4 -0.2
v -0.2 0.4 -0.2
v 0.2 0.4 -0.2
v 0.5 0.4 -0.2
v -0.5 0.4 -0.4
v 0.5 0.4 -0.4
v -0.1 0.6 0.5
v 0.1 0.6 0.5
v -0.1 0.6 0.2
v 0.1 0.6 0.2
v -0.2 0.8 0.2
v 0.2 0.8 0.2
v -0.1 0.8 0.1
v 0.1 0.8 0.1
v -0.1 0.8 -0.1
v 0.1 0.8 -0.1
v -0.2 0.8 -0.2
v 0.2 0.8 -0.2
v -0.1 0.9 0.1
v 0.1 0.9 0.1
v -0.1 0.9 -0.1
v 0.1 0.9 -0.1

# faces
f 3/5/1 2/5/1 1/5/1
f 4/5/1 2/5/1 3/5/1
f 5/3/1 4/3/1 3/3/1
f 6/3/1 4/3/1 5/3/1
f 7/3/1 4/3/1 6/3/1
f 8/3/1 4/3/1 7/3/1
f 9/4/1 7/4/1 6/4/1
f 10/4/1 7/4/1 9/4/1
f 13/6/1 12/6/1 11/6/1
f 14/6/1 12/6/1 13/6/1
f 15/2/1 14/2/1 13/2/1
f 16/2/1 14/2/1 15/2/1
f 17/6/1 16/6/1 15/6/1
f 18/6/1 16/6/1 17/6/1
f 19/2/1 18/2/1 17/2/1
f 20/2/1 18/2/1 19/2/1
f 21/6/1 20/6/1 19/6/1
f 22/6/1 20/6/1 21/6/1
f 23/2/1 22/2/1 21/2/1
f 24/2/1 22/2/1 23/2/1
f 27/6/1 26/6/1 25/6/1
f 28/6/1 26/6/1 27/6/1
f 31/6/1 30/6/1 29/6/1
f 32/6/1 30/6/1 31/6/1
f 35/1/1 34/1/1 33/1/1
f 36/1/1 34/1/1 35/1/1
f 40/2/1 38/2/1 37/2/1
f 40/2/1 39/2/1 38/2/1
f 41/2/1 39/2/1 40/2/1
f 44/3/1 43/3/1 42/3/1
f 45/3/1 43/3/1 44/3/1
f 46/3/2 47/3/2 48/3/2
f 48/3/2 47/3/2 49/3/2
f 50/2/2 51/2/2 53/2/2
f 51/2/2 52/2/2 53/2/2
f 53/2/2 52/2/2 54/2/2
f 55/1/2 56/1/2 57/1/2
f 57/1/2 56/1/2 58/1/2
f 59/6/2 60/6/2 61/6/2
f 61/6/2 60/6/2 62/6/2
f 63/6/2 64/6/2 65/6/2
f 65/6/2 64/6/2 66/6/2
f 67/6/2 68/6/2 69/6/2
f 69/6/2 68/6/2 70/6/2
f 69/2/2 70/2/2 71/2/2
f 71/2/2 70/2/2 72/2/2
f 71/6/2 72/6/2 73/6/2
f 73/6/2 72/6/2 74/6/2
f 73/2/2 74/2/2 75/2/2
f 75/2/2 74/2/2 76/2/2
f 75/6/2 76/6/2 77/6/2
f 77/6/2 76/6/2 78/6/2
f 77/2/2 78/2/2 79/2/2
f 79/2/2 78/2/2 80/2/2
f 81/5/2 82/5/2 83/5/2
f 83/5/2 82/5/2 84/5/2
f 83/3/2 84/3/2 85/3/2
f 85/3/2 84/3/2 86/3/2
f 86/3/2 84/3/2 87/3/2
f 87/3/2 84/3/2 88/3/2
f 86/4/2 87/4/2 89/4/2
f 89/4/2 87/4/2 90/4/2
f 94/5/3 92/5/3 91/5/3
f 95/3/3 93/3/3 92/3/3
f 95/5/3 92/5/3 94/5/3
f 96/3/3 93/3/3 95/3/3
f 97/1/3 95/1/3 94/1/3
f 98/1/3 95/1/3 97/1/3
f 101/6/3 100/6/3 99/6/3
f 102/6/3 100/6/3 101/6/3
f 105/1/3 104/1/3 103/1/3
f 106/1/3 104/1/3 105/1/3
f 108/5/3 106/5/3 105/5/3
f 109/3/3 107/3/3 106/3/3
f 109/5/3 106/5/3 108/5/3
f 110/3/3 107/3/3 109/3/3
f 113/2/3 112/2/3 111/2/3
f 114/2/3 112/2/3 113/2/3
f 117/2/3 116/2/3 115/2/3
f 118/2/3 116/2/3 117/2/3
f 121/2/3 120/2/3 119/2/3
f 122/2/3 120/2/3 121/2/3
f 130/6/3 126/6/3 125/6/3
f 130/2/3 127/2/3 126/2/3
f 131/6/3 128/6/3 127/6/3
f 131/2/3 127/2/3 130/2/3
f 132/6/3 130/6/3 125/6/3
f 133/6/3 128/6/3 131/6/3
f 134/6/3 124/6/3 123/6/3
f 135/2/3 125/2/3 124/2/3
f 135/6/3 124/6/3 134/6/3
f 136/6/3 132/6/3 125/6/3
f 136/2/3 125/2/3 135/2/3
f 137/2/3 133/2/3 132/2/3
f 137/6/3 132/6/3 136/6/3
f 138/6/3 128/6/3 133/6/3
f 138/2/3 133/2/3 137/2/3
f 139/2/3 129/2/3 128/2/3
f 139/6/3 128/6/3 138/6/3
f 140/2/3 129/2/3 139/2/3
f 143/6/3 142/6/3 141/6/3
f 144/6/3 142/6/3 143/6/3
f 147/4/3 146/4/3 145/4/3
f 149/4/3 146/4/3 147/4/3
f 150/4/3 149/4/3 148/4/3
f 151/4/3 146/4/3 149/4/3
f 151/4/3 149/4/3 150/4/3
f 152/4/3 146/4/3 151/4/3
f 156/4/3 154/4/3 153/4/3
f 156/4/3 155/4/3 154/4/3
f 157/4/3 155/4/3 156/4/3
f 158/4/3 155/4/3 157/4/3
f 159/4/3 155/4/3 158/4/3
f 160/4/3 155/4/3 159/4/3
f 161/6/4 162/6/4 163/6/4
f 163/6/4 162/6/4 164/6/4
f 165/6/4 166/6/4 170/6/4
f 166/2/4 167/2/4 171/2/4
f 170/6/4 166/6/4 171/6/4
f 167/6/4 168/6/4 172/6/4
f 171/2/4 167/2/4 172/2/4
f 168/2/4 169/2/4 173/2/4
f 172/6/4 168/6/4 173/6/4
f 173/2/4 169/2/4 174/2/4
f 175/4/4 176/4/4 177/4/4
f 177/4/4 176/4/4 178/4/4
f 178/4/4 176/4/4 179/4/4
f 179/4/4 176/4/4 180/4/4
f 180/4/4 176/4/4 181/4/4
f 181/4/4 176/4/4 182/4/4
f 183/5/4 184/5/4 186/5/4
f 184/3/4 185/3/4 187/3/4
f 186/5/4 184/5/4 187/5/4
f 187/3/4 185/3/4 188/3/4
f 186/1/4 187/1/4 189/1/4
f 187/2/4 188/2/4 189/2/4
f 189/2/4 188/2/4 190/2/4
f 186/1/4 189/1/4 191/1/4
f 189/4/4 190/4/4 191/4/4
f 191/4/4 190/4/4 192/4/4
f 186/1/4 191/1/4 193/1/4
f 191/2/4 192/2/4 194/2/4
f 193/1/4 191/1/4 194/1/4
f 194/2/4 192/2/4 195/2/4
f 193/5/4 194/5/4 196/5/4
f 194/3/4 195/3/4 197/3/4
f 196/5/4 194/5/4 197/5/4
f 197/3/4 195/3/4 198/3/4
f 205/5/5 200/5/5 199/5/5
f 205/1/5 201/1/5 200/1/5
f 206/1/5 201/1/5 205/1/5
f 207/1/5 203/1/5 202/1/5
f 208/5/5 204/5/5 203/5/5
f 208/1/5 203/1/5 207/1/5
f 209/2/5 207/2/5 206/2/5
f 209/2/5 206/2/5 205/2/5
f 209/2/5 208/2/5 207/2/5
f 209/5/5 205/5/5 199/5/5
f 210/5/5 204/5/5 208/5/5
f 210/2/5 208/2/5 209/2/5
f 211/5/5 209/5/5 199/5/5
f 212/1/5 210/1/5 209/1/5
f 212/5/5 209/5/5 211/5/5
f 213/5/5 204/5/5 210/5/5
f 213/1/5 210/1/5 212/1/5
f 214/5/5 204/5/5 213/5/5
f 217/6/5 216/6/5 215/6/5
f 218/6/5 216/6/5 217/6/5
f 219/1/6 220/1/6 223/1/6
f 223/1/6 220/1/6 224/1/6
f 224/1/6 220/1/6 225/1/6
f 221/1/6 222/1/6 226/1/6
f 226/1/6 222/1/6 227/1/6
f 227/1/6 222/1/6 228/1/6
f 224/2/6 225/2/6 229/2/6
f 226/2/6 227/2/6 229/2/6
f 225/2/6 226/2/6 229/2/6
f 229/2/6 227/2/6 230/2/6
f 229/6/6 230/6/6 231/6/6
f 231/6/6 230/6/6 232/6/6
f 229/6/6 231/6/6 233/6/6
f 233/6/6 231/6/6 234/6/6
f 232/6/6 230/6/6 235/6/6
f 235/6/6 230/6/6 236/6/6
f 237/3/6 238/3/6 241/3/6
f 239/3/6 240/3/6 244/3/6
f 237/3/6 241/3/6 245/3/6
f 241/2/6 242/2/6 246/2/6
f 245/3/6 241/3/6 246/3/6
f 246/2/6 242/2/6 247/2/6
f 243/2/6 244/2/6 248/2/6
f 244/3/6 240/3/6 249/3/6
f 248/2/6 244/2/6 249/2/6
f 249/3/6 240/3/6 250/3/6
f 251/3/6 252/3/6 257/3/6
f 252/2/6 253/2/6 258/2/6
f 257/3/6 252/3/6 258/3/6
f 253/4/6 254/4/6 259/4/6
f 258/2/6 253/2/6 259/2/6
f 254/2/6 255/2/6 260/2/6
f 259/4/6 254/4/6 260/4/6
f 255/3/6 256/3/6 261/3/6
f 260/2/6 255/2/6 261/2/6
f 261/3/6 256/3/6 262/3/6
f 263/4/6 264/4/6 267/4/6
f 265/4/6 266/4/6 267/4/6
f 264/4/6 265/4/6 267/4/6
f 267/4/6 266/4/6 268/4/6
f 269/6/6 270/6/6 271/6/6
f 271/6/6 270/6/6 272/6/6
f 273/2/6 274/2/6 275/2/6
f 275/2/6 274/2/6 276/2/6
f 273/2/6 275/2/6 277/2/6
f 276/2/6 274/2/6 278/2/6
f 273/2/6 277/2/6 279/2/6
f 277/2/6 278/2/6 279/2/6
f 278/2/6 274/2/6 280/2/6
f 279/2/6 278/2/6 280/2/6
f 281/6/6 282/6/6 283/6/6
f 283/6/6 282/6/6 284/6/6
