# MagicaVoxel @ Ephtracy

# group
o 

# material
mtllib Tile_001.mtl
usemtl palette

# normals
vn -1 0 0
vn 1 0 0
vn 0 0 1
vn 0 0 -1
vn 0 -1 0
vn 0 1 0

# texcoords
vt 0.306641 0.5
vt 0.533203 0.5
vt 0.537109 0.5
vt 0.884766 0.5
vt 0.888672 0.5

# verts
v -0.5 0 0.5
v -0.5 0 -0.5
v -0.5 0.2 0.4
v -0.5 0.2 0.3
v -0.5 0.2 -0.1
v -0.5 0.2 -0.2
v -0.5 0.3 0.4
v -0.5 0.3 0.3
v -0.5 0.3 0.1
v -0.5 0.3 -0.1
v -0.5 0.3 -0.2
v -0.5 0.4 0.1
v -0.5 0.4 -0.1
v -0.5 0.5 0.4
v -0.5 0.5 0.3
v -0.5 0.5 0
v -0.5 0.5 -0.1
v -0.5 0.5 -0.3
v -0.5 0.5 -0.4
v -0.5 0.6 0.5
v -0.5 0.6 0.4
v -0.5 0.6 0.3
v -0.5 0.6 0.1
v -0.5 0.6 -0.1
v -0.5 0.6 -0.2
v -0.5 0.7 0.1
v -0.5 0.7 0
v -0.5 0.7 -0.1
v -0.5 0.7 -0.2
v -0.5 0.7 -0.3
v -0.5 0.7 -0.4
v -0.5 0.7 -0.5
v -0.5 0.8 0.5
v -0.5 0.8 0
v -0.5 0.8 -0.1
v -0.5 0.8 -0.2
v -0.5 0.8 -0.3
v -0.5 1 0.5
v -0.5 1 0
v -0.5 1 -0.2
v -0.5 1 -0.3
v -0.5 1 -0.5
v 0.5 0 0.5
v 0.5 0 -0.5
v 0.5 0.2 0.4
v 0.5 0.2 -0.1
v 0.5 0.2 -0.4
v 0.5 0.2 -0.5
v 0.5 0.3 0.4
v 0.5 0.3 0.3
v 0.5 0.3 0.1
v 0.5 0.3 -0.1
v 0.5 0.3 -0.2
v 0.5 0.3 -0.4
v 0.5 0.3 -0.5
v 0.5 0.4 0.4
v 0.5 0.4 0.3
v 0.5 0.4 -0.1
v 0.5 0.4 -0.2
v 0.5 0.5 0.4
v 0.5 0.5 0.1
v 0.5 0.5 -0.1
v 0.5 0.5 -0.2
v 0.5 0.6 0.3
v 0.5 0.6 0.2
v 0.5 0.6 0
v 0.5 0.6 -0.1
v 0.5 0.6 -0.3
v 0.5 0.6 -0.5
v 0.5 0.7 0.5
v 0.5 0.7 0.3
v 0.5 0.7 0.2
v 0.5 0.7 0
v 0.5 0.7 -0.2
v 0.5 0.7 -0.3
v 0.5 0.8 0.5
v 0.5 0.8 0.2
v 0.5 1 0.5
v 0.5 1 0.2
v 0.5 1 -0.5
v -0.5 0 0.5
v -0.5 0.6 0.5
v -0.5 0.8 0.5
v -0.5 1 0.5
v -0.4 0.1 0.5
v -0.4 0.2 0.5
v -0.4 0.6 0.5
v -0.4 0.7 0.5
v -0.3 0.2 0.5
v -0.3 0.3 0.5
v -0.3 0.6 0.5
v -0.3 0.7 0.5
v -0.2 0.1 0.5
v -0.2 0.2 0.5
v -0.2 0.5 0.5
v -0.2 0.6 0.5
v -0.1 0.1 0.5
v -0.1 0.2 0.5
v -0.1 0.3 0.5
v -0.1 0.4 0.5
v -0.1 0.5 0.5
v -0.1 0.6 0.5
v 0 0.1 0.5
v 0 0.2 0.5
v 0 0.3 0.5
v 0 0.4 0.5
v 0 0.5 0.5
v 0 0.6 0.5
v 0 0.8 0.5
v 0 0.9 0.5
v 0.1 0.2 0.5
v 0.1 0.3 0.5
v 0.1 0.5 0.5
v 0.1 0.6 0.5
v 0.2 0.3 0.5
v 0.2 0.5 0.5
v 0.2 0.6 0.5
v 0.2 0.7 0.5
v 0.2 0.8 0.5
v 0.2 0.9 0.5
v 0.3 0.2 0.5
v 0.3 0.5 0.5
v 0.3 0.6 0.5
v 0.3 0.7 0.5
v 0.4 0.6 0.5
v 0.4 0.7 0.5
v 0.5 0 0.5
v 0.5 0.7 0.5
v 0.5 0.8 0.5
v 0.5 1 0.5
v -0.5 0 -0.5
v -0.5 0.7 -0.5
v -0.5 1 -0.5
v -0.4 0.3 -0.5
v -0.4 0.4 -0.5
v -0.4 0.5 -0.5
v -0.4 0.7 -0.5
v -0.4 0.9 -0.5
v -0.4 1 -0.5
v -0.3 0.3 -0.5
v -0.3 0.4 -0.5
v -0.2 0.2 -0.5
v -0.2 0.3 -0.5
v -0.2 0.5 -0.5
v -0.2 0.6 -0.5
v -0.1 0.2 -0.5
v -0.1 0.3 -0.5
v -0.1 0.4 -0.5
v -0.1 0.6 -0.5
v 0.1 0.2 -0.5
v 0.1 0.3 -0.5
v 0.1 0.4 -0.5
v 0.1 0.7 -0.5
v 0.2 0.2 -0.5
v 0.2 0.3 -0.5
v 0.2 0.5 -0.5
v 0.2 0.7 -0.5
v 0.3 0.3 -0.5
v 0.3 0.4 -0.5
v 0.4 0.2 -0.5
v 0.4 0.3 -0.5
v 0.4 0.4 -0.5
v 0.4 0.5 -0.5
v 0.4 0.6 -0.5
v 0.4 0.9 -0.5
v 0.4 1 -0.5
v 0.5 0 -0.5
v 0.5 0.2 -0.5
v 0.5 0.3 -0.5
v 0.5 0.6 -0.5
v 0.5 1 -0.5
v -0.5 0 0.5
v 0.5 0 0.5
v -0.5 0 -0.5
v 0.5 0 -0.5
v -0.5 1 0.5
v 0.5 1 0.5
v 0.4 1 0.2
v 0.5 1 0.2
v -0.5 1 0
v -0.4 1 0
v -0.5 1 -0.2
v -0.4 1 -0.2
v -0.5 1 -0.3
v -0.4 1 -0.3
v -0.5 1 -0.5
v -0.4 1 -0.5
v 0.4 1 -0.5
v 0.5 1 -0.5

# faces
f 3/3/1 2/3/1 1/3/1
f 4/3/1 2/3/1 3/3/1
f 5/3/1 2/3/1 4/3/1
f 6/3/1 2/3/1 5/3/1
f 7/3/1 3/3/1 1/3/1
f 7/2/1 4/2/1 3/2/1
f 8/3/1 5/3/1 4/3/1
f 8/2/1 4/2/1 7/2/1
f 9/3/1 5/3/1 8/3/1
f 10/2/1 6/2/1 5/2/1
f 10/3/1 5/3/1 9/3/1
f 11/3/1 2/3/1 6/3/1
f 11/2/1 6/2/1 10/2/1
f 12/2/1 10/2/1 9/2/1
f 12/3/1 9/3/1 8/3/1
f 12/3/1 8/3/1 7/3/1
f 13/3/1 11/3/1 10/3/1
f 13/2/1 10/2/1 12/2/1
f 14/3/1 12/3/1 7/3/1
f 14/3/1 7/3/1 1/3/1
f 14/3/1 13/3/1 12/3/1
f 15/3/1 13/3/1 14/3/1
f 16/3/1 13/3/1 15/3/1
f 17/3/1 11/3/1 13/3/1
f 17/3/1 13/3/1 16/3/1
f 18/3/1 2/3/1 11/3/1
f 18/3/1 11/3/1 17/3/1
f 19/3/1 2/3/1 18/3/1
f 20/3/1 14/3/1 1/3/1
f 21/4/1 15/4/1 14/4/1
f 21/3/1 14/3/1 20/3/1
f 22/3/1 16/3/1 15/3/1
f 22/4/1 15/4/1 21/4/1
f 23/3/1 16/3/1 22/3/1
f 24/4/1 17/4/1 16/4/1
f 24/3/1 18/3/1 17/3/1
f 25/3/1 18/3/1 24/3/1
f 26/3/1 16/3/1 23/3/1
f 26/4/1 21/4/1 20/4/1
f 26/4/1 23/4/1 22/4/1
f 26/4/1 22/4/1 21/4/1
f 27/4/1 25/4/1 24/4/1
f 27/3/1 16/3/1 26/3/1
f 27/4/1 24/4/1 16/4/1
f 28/4/1 25/4/1 27/4/1
f 29/3/1 18/3/1 25/3/1
f 29/4/1 25/4/1 28/4/1
f 30/4/1 19/4/1 18/4/1
f 30/3/1 18/3/1 29/3/1
f 31/3/1 2/3/1 19/3/1
f 31/4/1 19/4/1 30/4/1
f 32/3/1 2/3/1 31/3/1
f 33/4/1 28/4/1 27/4/1
f 33/4/1 26/4/1 20/4/1
f 33/4/1 27/4/1 26/4/1
f 34/4/1 28/4/1 33/4/1
f 35/5/1 29/5/1 28/5/1
f 35/4/1 28/4/1 34/4/1
f 36/4/1 32/4/1 31/4/1
f 36/5/1 29/5/1 35/5/1
f 36/4/1 30/4/1 29/4/1
f 36/4/1 31/4/1 30/4/1
f 37/4/1 32/4/1 36/4/1
f 38/5/1 34/5/1 33/5/1
f 39/4/1 35/4/1 34/4/1
f 39/5/1 34/5/1 38/5/1
f 39/4/1 36/4/1 35/4/1
f 40/5/1 37/5/1 36/5/1
f 40/4/1 36/4/1 39/4/1
f 41/4/1 32/4/1 37/4/1
f 41/5/1 37/5/1 40/5/1
f 42/4/1 32/4/1 41/4/1
f 43/3/2 44/3/2 45/3/2
f 45/3/2 44/3/2 46/3/2
f 46/3/2 44/3/2 47/3/2
f 47/3/2 44/3/2 48/3/2
f 43/3/2 45/3/2 49/3/2
f 45/2/2 46/2/2 49/2/2
f 49/2/2 46/2/2 50/2/2
f 50/2/2 46/2/2 51/2/2
f 46/3/2 47/3/2 52/3/2
f 51/2/2 46/2/2 52/2/2
f 52/3/2 47/3/2 53/3/2
f 47/2/2 48/2/2 54/2/2
f 53/3/2 47/3/2 54/3/2
f 54/2/2 48/2/2 55/2/2
f 43/3/2 49/3/2 56/3/2
f 49/3/2 50/3/2 56/3/2
f 50/2/2 51/2/2 57/2/2
f 56/3/2 50/3/2 57/3/2
f 52/2/2 53/2/2 58/2/2
f 51/3/2 52/3/2 58/3/2
f 54/3/2 55/3/2 59/3/2
f 58/2/2 53/2/2 59/2/2
f 53/3/2 54/3/2 59/3/2
f 43/3/2 56/3/2 60/3/2
f 56/2/2 57/2/2 60/2/2
f 57/2/2 51/2/2 61/2/2
f 60/2/2 57/2/2 61/2/2
f 51/3/2 58/3/2 61/3/2
f 58/3/2 59/3/2 61/3/2
f 61/3/2 59/3/2 62/3/2
f 59/3/2 55/3/2 63/3/2
f 62/3/2 59/3/2 63/3/2
f 61/3/2 62/3/2 64/3/2
f 60/3/2 61/3/2 64/3/2
f 64/3/2 62/3/2 65/3/2
f 65/3/2 62/3/2 66/3/2
f 62/4/2 63/4/2 67/4/2
f 66/3/2 62/3/2 67/3/2
f 63/3/2 55/3/2 68/3/2
f 68/3/2 55/3/2 69/3/2
f 43/3/2 60/3/2 70/3/2
f 60/3/2 64/3/2 70/3/2
f 64/4/2 65/4/2 71/4/2
f 70/3/2 64/3/2 71/3/2
f 65/3/2 66/3/2 72/3/2
f 71/4/2 65/4/2 72/4/2
f 66/4/2 67/4/2 73/4/2
f 72/3/2 66/3/2 73/3/2
f 67/4/2 63/4/2 74/4/2
f 73/4/2 67/4/2 74/4/2
f 63/3/2 68/3/2 74/3/2
f 68/4/2 69/4/2 75/4/2
f 74/3/2 68/3/2 75/3/2
f 72/4/2 73/4/2 76/4/2
f 70/4/2 71/4/2 76/4/2
f 74/4/2 75/4/2 76/4/2
f 71/4/2 72/4/2 76/4/2
f 73/4/2 74/4/2 76/4/2
f 76/4/2 75/4/2 77/4/2
f 76/5/2 77/5/2 78/5/2
f 77/4/2 75/4/2 79/4/2
f 78/5/2 77/5/2 79/5/2
f 75/4/2 69/4/2 80/4/2
f 79/4/2 75/4/2 80/4/2
f 85/3/3 82/3/3 81/3/3
f 86/3/3 82/3/3 85/3/3
f 87/4/3 83/4/3 82/4/3
f 87/3/3 82/3/3 86/3/3
f 88/4/3 83/4/3 87/4/3
f 89/2/3 86/2/3 85/2/3
f 89/3/3 87/3/3 86/3/3
f 89/3/3 88/3/3 87/3/3
f 90/3/3 88/3/3 89/3/3
f 91/3/3 88/3/3 90/3/3
f 92/4/3 83/4/3 88/4/3
f 92/3/3 88/3/3 91/3/3
f 93/3/3 85/3/3 81/3/3
f 93/2/3 89/2/3 85/2/3
f 93/2/3 90/2/3 89/2/3
f 94/2/3 90/2/3 93/2/3
f 95/3/3 91/3/3 90/3/3
f 96/4/3 92/4/3 91/4/3
f 96/3/3 91/3/3 95/3/3
f 97/3/3 93/3/3 81/3/3
f 97/3/3 94/3/3 93/3/3
f 98/2/3 90/2/3 94/2/3
f 98/3/3 94/3/3 97/3/3
f 99/3/3 95/3/3 90/3/3
f 99/2/3 90/2/3 98/2/3
f 100/3/3 95/3/3 99/3/3
f 101/4/3 96/4/3 95/4/3
f 101/3/3 95/3/3 100/3/3
f 102/4/3 92/4/3 96/4/3
f 102/4/3 96/4/3 101/4/3
f 103/3/3 97/3/3 81/3/3
f 103/2/3 98/2/3 97/2/3
f 104/3/3 99/3/3 98/3/3
f 104/2/3 98/2/3 103/2/3
f 105/2/3 100/2/3 99/2/3
f 105/3/3 99/3/3 104/3/3
f 106/3/3 102/3/3 101/3/3
f 106/2/3 100/2/3 105/2/3
f 106/3/3 101/3/3 100/3/3
f 107/3/3 102/3/3 106/3/3
f 108/4/3 92/4/3 102/4/3
f 108/3/3 102/3/3 107/3/3
f 109/5/3 84/5/3 83/5/3
f 109/4/3 92/4/3 108/4/3
f 109/4/3 83/4/3 92/4/3
f 110/5/3 84/5/3 109/5/3
f 111/3/3 107/3/3 106/3/3
f 111/3/3 106/3/3 105/3/3
f 111/3/3 105/3/3 104/3/3
f 111/3/3 104/3/3 103/3/3
f 112/3/3 107/3/3 111/3/3
f 113/4/3 108/4/3 107/4/3
f 113/3/3 107/3/3 112/3/3
f 113/4/3 110/4/3 109/4/3
f 113/4/3 109/4/3 108/4/3
f 114/4/3 110/4/3 113/4/3
f 115/2/3 112/2/3 111/2/3
f 115/3/3 113/3/3 112/3/3
f 115/3/3 114/3/3 113/3/3
f 116/3/3 114/3/3 115/3/3
f 117/4/3 110/4/3 114/4/3
f 117/3/3 114/3/3 116/3/3
f 118/4/3 110/4/3 117/4/3
f 119/4/3 110/4/3 118/4/3
f 120/5/3 84/5/3 110/5/3
f 120/4/3 110/4/3 119/4/3
f 121/2/3 116/2/3 115/2/3
f 121/3/3 111/3/3 103/3/3
f 121/2/3 115/2/3 111/2/3
f 122/3/3 118/3/3 117/3/3
f 122/2/3 116/2/3 121/2/3
f 122/3/3 117/3/3 116/3/3
f 123/3/3 118/3/3 122/3/3
f 124/4/3 119/4/3 118/4/3
f 124/3/3 118/3/3 123/3/3
f 125/3/3 123/3/3 122/3/3
f 125/3/3 122/3/3 121/3/3
f 125/4/3 124/4/3 123/4/3
f 126/4/3 119/4/3 124/4/3
f 126/4/3 124/4/3 125/4/3
f 127/3/3 125/3/3 121/3/3
f 127/3/3 103/3/3 81/3/3
f 127/3/3 126/3/3 125/3/3
f 127/3/3 121/3/3 103/3/3
f 128/4/3 119/4/3 126/4/3
f 128/3/3 126/3/3 127/3/3
f 129/5/3 120/5/3 119/5/3
f 129/4/3 119/4/3 128/4/3
f 130/5/3 84/5/3 120/5/3
f 130/5/3 120/5/3 129/5/3
f 131/3/4 132/3/4 134/3/4
f 134/3/4 132/3/4 135/3/4
f 135/3/4 132/3/4 136/3/4
f 132/4/4 133/4/4 137/4/4
f 136/3/4 132/3/4 137/3/4
f 137/4/4 133/4/4 138/4/4
f 138/4/4 133/4/4 139/4/4
f 131/3/4 134/3/4 140/3/4
f 134/2/4 135/2/4 140/2/4
f 135/3/4 136/3/4 141/3/4
f 140/2/4 135/2/4 141/2/4
f 131/3/4 140/3/4 142/3/4
f 140/3/4 141/3/4 142/3/4
f 142/3/4 141/3/4 143/3/4
f 141/3/4 136/3/4 144/3/4
f 143/3/4 141/3/4 144/3/4
f 136/4/4 137/4/4 144/4/4
f 137/4/4 138/4/4 144/4/4
f 144/4/4 138/4/4 145/4/4
f 142/2/4 143/2/4 146/2/4
f 131/3/4 142/3/4 146/3/4
f 144/3/4 145/3/4 147/3/4
f 146/2/4 143/2/4 147/2/4
f 143/3/4 144/3/4 147/3/4
f 147/3/4 145/3/4 148/3/4
f 145/4/4 138/4/4 149/4/4
f 148/3/4 145/3/4 149/3/4
f 147/3/4 148/3/4 150/3/4
f 131/3/4 146/3/4 150/3/4
f 146/3/4 147/3/4 150/3/4
f 150/3/4 148/3/4 151/3/4
f 148/4/4 149/4/4 152/4/4
f 151/3/4 148/3/4 152/3/4
f 149/4/4 138/4/4 153/4/4
f 152/4/4 149/4/4 153/4/4
f 150/2/4 151/2/4 154/2/4
f 131/3/4 150/3/4 154/3/4
f 151/3/4 152/3/4 155/3/4
f 154/2/4 151/2/4 155/2/4
f 152/3/4 153/3/4 155/3/4
f 155/3/4 153/3/4 156/3/4
f 153/4/4 138/4/4 157/4/4
f 156/3/4 153/3/4 157/3/4
f 155/3/4 156/3/4 158/3/4
f 154/3/4 155/3/4 158/3/4
f 158/3/4 156/3/4 159/3/4
f 131/3/4 154/3/4 160/3/4
f 154/3/4 158/3/4 160/3/4
f 158/2/4 159/2/4 161/2/4
f 160/3/4 158/3/4 161/3/4
f 159/3/4 156/3/4 162/3/4
f 161/2/4 159/2/4 162/2/4
f 156/4/4 157/4/4 163/4/4
f 162/3/4 156/3/4 163/3/4
f 163/4/4 157/4/4 164/4/4
f 138/5/4 139/5/4 165/5/4
f 164/4/4 157/4/4 165/4/4
f 157/4/4 138/4/4 165/4/4
f 165/5/4 139/5/4 166/5/4
f 131/3/4 160/3/4 167/3/4
f 160/2/4 161/2/4 168/2/4
f 167/3/4 160/3/4 168/3/4
f 163/3/4 164/3/4 169/3/4
f 168/2/4 161/2/4 169/2/4
f 162/3/4 163/3/4 169/3/4
f 161/3/4 162/3/4 169/3/4
f 165/4/4 166/4/4 170/4/4
f 169/3/4 164/3/4 170/3/4
f 164/4/4 165/4/4 170/4/4
f 170/4/4 166/4/4 171/4/4
f 174/3/5 173/3/5 172/3/5
f 175/3/5 173/3/5 174/3/5
f 176/5/6 177/5/6 178/5/6
f 178/5/6 177/5/6 179/5/6
f 176/5/6 178/5/6 180/5/6
f 180/5/6 178/5/6 181/5/6
f 180/4/6 181/4/6 182/4/6
f 181/5/6 178/5/6 183/5/6
f 182/4/6 181/4/6 183/4/6
f 182/5/6 183/5/6 184/5/6
f 183/5/6 178/5/6 185/5/6
f 184/5/6 183/5/6 185/5/6
f 184/4/6 185/4/6 186/4/6
f 185/5/6 178/5/6 187/5/6
f 186/4/6 185/4/6 187/4/6
f 178/4/6 179/4/6 188/4/6
f 187/5/6 178/5/6 188/5/6
f 188/4/6 179/4/6 189/4/6
