# MagicaVoxel @ Ephtracy

# group
o 

# material
mtllib Character_Tank.mtl
usemtl palette

# normals
vn -1 0 0
vn 1 0 0
vn 0 0 1
vn 0 0 -1
vn 0 -1 0
vn 0 1 0

# texcoords
vt 0.0214844 0.5
vt 0.876953 0.5
vt 0.986328 0.5

# verts
v -0.5 0 0.4
v -0.5 0 -0.5
v -0.5 0.6 0.4
v -0.5 0.6 -0.5
v -0.4 0.6 0.3
v -0.4 0.6 -0.4
v -0.4 0.8 0.3
v -0.4 0.8 -0.4
v -0.3 0.8 0.1
v -0.3 0.8 -0.3
v -0.3 0.9 0.1
v -0.3 0.9 -0.3
v -0.2 0.9 0
v -0.2 0.9 -0.2
v -0.2 1 0
v -0.2 1 -0.2
v 0.2 0.9 0
v 0.2 0.9 -0.2
v 0.2 1 0
v 0.2 1 -0.2
v 0.3 0.8 0.1
v 0.3 0.8 -0.3
v 0.3 0.9 0.1
v 0.3 0.9 -0.3
v 0.4 0.6 0.3
v 0.4 0.6 -0.4
v 0.4 0.8 0.3
v 0.4 0.8 -0.4
v 0.5 0 0.4
v 0.5 0 -0.5
v 0.5 0.6 0.4
v 0.5 0.6 -0.5
v -0.5 0 0.4
v -0.5 0.6 0.4
v -0.4 0 0.4
v -0.4 0.6 0.4
v -0.3 0.2 0.4
v -0.3 0.4 0.4
v 0.3 0.2 0.4
v 0.3 0.4 0.4
v 0.4 0 0.4
v 0.4 0.6 0.4
v 0.5 0 0.4
v 0.5 0.6 0.4
v -0.4 0.6 0.3
v -0.4 0.8 0.3
v 0.4 0.6 0.3
v 0.4 0.8 0.3
v -0.3 0.8 0.1
v -0.3 0.9 0.1
v 0.3 0.8 0.1
v 0.3 0.9 0.1
v -0.2 0.9 0
v -0.2 1 0
v 0.2 0.9 0
v 0.2 1 0
v -0.2 0.9 -0.2
v -0.2 1 -0.2
v 0.2 0.9 -0.2
v 0.2 1 -0.2
v -0.3 0.8 -0.3
v -0.3 0.9 -0.3
v 0.3 0.8 -0.3
v 0.3 0.9 -0.3
v -0.4 0.6 -0.4
v -0.4 0.8 -0.4
v 0.4 0.6 -0.4
v 0.4 0.8 -0.4
v -0.5 0 -0.5
v -0.5 0.6 -0.5
v -0.4 0 -0.5
v -0.4 0.6 -0.5
v 0.4 0 -0.5
v 0.4 0.6 -0.5
v 0.5 0 -0.5
v 0.5 0.6 -0.5
v -0.5 0 0.4
v -0.4 0 0.4
v 0.4 0 0.4
v 0.5 0 0.4
v -0.5 0 -0.5
v -0.4 0 -0.5
v 0.4 0 -0.5
v 0.5 0 -0.5
v -0.5 0.6 0.4
v -0.4 0.6 0.4
v 0.4 0.6 0.4
v 0.5 0.6 0.4
v -0.4 0.6 0.3
v 0.4 0.6 0.3
v -0.4 0.6 -0.4
v 0.4 0.6 -0.4
v -0.5 0.6 -0.5
v -0.4 0.6 -0.5
v 0.4 0.6 -0.5
v 0.5 0.6 -0.5
v -0.4 0.8 0.3
v 0.4 0.8 0.3
v -0.3 0.8 0.1
v 0.3 0.8 0.1
v -0.3 0.8 -0.3
v 0.3 0.8 -0.3
v -0.4 0.8 -0.4
v 0.4 0.8 -0.4
v -0.3 0.9 0.1
v 0.3 0.9 0.1
v -0.2 0.9 0
v 0.2 0.9 0
v -0.2 0.9 -0.2
v 0.2 0.9 -0.2
v -0.3 0.9 -0.3
v 0.3 0.9 -0.3
v -0.2 1 0
v 0.2 1 0
v -0.2 1 -0.2
v 0.2 1 -0.2

# faces
f 3/3/1 2/3/1 1/3/1
f 4/3/1 2/3/1 3/3/1
f 7/1/1 6/1/1 5/1/1
f 8/1/1 6/1/1 7/1/1
f 11/1/1 10/1/1 9/1/1
f 12/1/1 10/1/1 11/1/1
f 15/1/1 14/1/1 13/1/1
f 16/1/1 14/1/1 15/1/1
f 17/1/2 18/1/2 19/1/2
f 19/1/2 18/1/2 20/1/2
f 21/1/2 22/1/2 23/1/2
f 23/1/2 22/1/2 24/1/2
f 25/1/2 26/1/2 27/1/2
f 27/1/2 26/1/2 28/1/2
f 29/3/2 30/3/2 31/3/2
f 31/3/2 30/3/2 32/3/2
f 35/3/3 34/3/3 33/3/3
f 36/3/3 34/3/3 35/3/3
f 37/1/3 36/1/3 35/1/3
f 38/1/3 36/1/3 37/1/3
f 39/1/3 37/1/3 35/1/3
f 39/2/3 38/2/3 37/2/3
f 40/1/3 36/1/3 38/1/3
f 40/2/3 38/2/3 39/2/3
f 41/1/3 39/1/3 35/1/3
f 41/1/3 40/1/3 39/1/3
f 42/1/3 36/1/3 40/1/3
f 42/1/3 40/1/3 41/1/3
f 43/3/3 42/3/3 41/3/3
f 44/3/3 42/3/3 43/3/3
f 47/1/3 46/1/3 45/1/3
f 48/1/3 46/1/3 47/1/3
f 51/1/3 50/1/3 49/1/3
f 52/1/3 50/1/3 51/1/3
f 55/1/3 54/1/3 53/1/3
f 56/1/3 54/1/3 55/1/3
f 57/1/4 58/1/4 59/1/4
f 59/1/4 58/1/4 60/1/4
f 61/1/4 62/1/4 63/1/4
f 63/1/4 62/1/4 64/1/4
f 65/1/4 66/1/4 67/1/4
f 67/1/4 66/1/4 68/1/4
f 69/3/4 70/3/4 71/3/4
f 71/3/4 70/3/4 72/3/4
f 71/1/4 72/1/4 73/1/4
f 73/1/4 72/1/4 74/1/4
f 73/3/4 74/3/4 75/3/4
f 75/3/4 74/3/4 76/3/4
f 81/3/5 78/3/5 77/3/5
f 82/1/5 79/1/5 78/1/5
f 82/3/5 78/3/5 81/3/5
f 83/3/5 80/3/5 79/3/5
f 83/1/5 79/1/5 82/1/5
f 84/3/5 80/3/5 83/3/5
f 85/3/6 86/3/6 89/3/6
f 86/1/6 87/1/6 89/1/6
f 87/3/6 88/3/6 90/3/6
f 89/1/6 87/1/6 90/1/6
f 85/3/6 89/3/6 91/3/6
f 90/3/6 88/3/6 92/3/6
f 85/3/6 91/3/6 93/3/6
f 91/1/6 92/1/6 94/1/6
f 93/3/6 91/3/6 94/3/6
f 92/3/6 88/3/6 95/3/6
f 94/1/6 92/1/6 95/1/6
f 95/3/6 88/3/6 96/3/6
f 97/1/6 98/1/6 99/1/6
f 99/1/6 98/1/6 100/1/6
f 97/1/6 99/1/6 101/1/6
f 100/1/6 98/1/6 102/1/6
f 97/1/6 101/1/6 103/1/6
f 101/1/6 102/1/6 103/1/6
f 102/1/6 98/1/6 104/1/6
f 103/1/6 102/1/6 104/1/6
f 105/1/6 106/1/6 107/1/6
f 107/1/6 106/1/6 108/1/6
f 105/1/6 107/1/6 109/1/6
f 108/1/6 106/1/6 110/1/6
f 105/1/6 109/1/6 111/1/6
f 109/1/6 110/1/6 111/1/6
f 110/1/6 106/1/6 112/1/6
f 111/1/6 110/1/6 112/1/6
f 113/1/6 114/1/6 115/1/6
f 115/1/6 114/1/6 116/1/6
